<svg width="24" height="24" viewBox="0 0 24 24" fill="none"
                                        xmlns="http://www.w3.org/2000/svg">
                                        <path
                                            d="M13.2937 0C13.6465 0 13.9621 0.2196 14.0809 0.5484L14.9281 2.8968C15.2313 2.972 15.4929 3.0488 15.7129 3.1272C15.9529 3.2128 16.2649 3.3448 16.6489 3.5232L18.6217 2.4792C18.7826 2.3935 18.9671 2.36248 19.1472 2.39084C19.3273 2.4192 19.4933 2.50539 19.6201 2.6364L21.3553 4.4304C21.5857 4.6692 21.6505 5.0184 21.5209 5.3232L20.5957 7.4916C20.7485 7.7732 20.8717 8.0148 20.9653 8.2164C21.0661 8.4348 21.1909 8.7388 21.3397 9.1284L23.4961 10.0524C23.8201 10.1904 24.0205 10.5144 23.9989 10.8612L23.8405 13.3512C23.8296 13.513 23.7716 13.668 23.6734 13.797C23.5753 13.9261 23.4415 14.0235 23.2885 14.0772L21.2461 14.8032C21.1877 15.0848 21.1261 15.3272 21.0613 15.5304C20.9564 15.8453 20.8371 16.1553 20.7037 16.4592L21.7297 18.7272C21.8027 18.8864 21.8225 19.065 21.7862 19.2363C21.7499 19.4077 21.6594 19.5628 21.5281 19.6788L19.5769 21.4212C19.4486 21.5359 19.2882 21.6085 19.1174 21.6291C18.9466 21.6497 18.7735 21.6173 18.6217 21.5364L16.6105 20.4708C16.2961 20.6381 15.9715 20.7851 15.6385 20.9112L14.7601 21.24L13.9801 23.4C13.9217 23.5578 13.8173 23.6945 13.6804 23.7922C13.5434 23.89 13.3803 23.9444 13.2121 23.9484L10.9321 24C10.7593 24.004 10.5896 23.9547 10.4459 23.8587C10.3022 23.7627 10.1917 23.6247 10.1293 23.4636L9.21008 21.0312C8.89653 20.9238 8.58601 20.8077 8.27888 20.6832C8.02774 20.5745 7.78039 20.4572 7.53728 20.3316L5.25728 21.306C5.1071 21.3704 4.94141 21.3896 4.78048 21.3613C4.61956 21.3329 4.4704 21.2582 4.35127 21.1464L2.66407 19.5636C2.53799 19.4466 2.45211 19.2927 2.41871 19.124C2.3853 18.9552 2.40608 18.7802 2.47807 18.624L3.45847 16.488C3.32855 16.2348 3.20767 15.977 3.09607 15.7152C2.96608 15.3946 2.84603 15.07 2.73607 14.742L0.588075 14.088C0.413476 14.0352 0.261188 13.9263 0.154862 13.7781C0.0485369 13.6299 -0.00587577 13.4507 7.4752e-05 13.2684L0.0840748 10.9632C0.0903149 10.8129 0.137405 10.6671 0.220284 10.5415C0.303164 10.4159 0.418699 10.3153 0.554475 10.2504L2.80807 9.168C2.91207 8.7856 3.00407 8.4864 3.08407 8.2704C3.1973 7.9803 3.32302 7.69523 3.46087 7.416L2.48407 5.352C2.40938 5.19538 2.38657 5.01902 2.41893 4.84854C2.4513 4.67807 2.53717 4.52235 2.66407 4.404L4.34888 2.8128C4.46682 2.70114 4.61461 2.62607 4.77434 2.59668C4.93408 2.56729 5.09891 2.58484 5.24888 2.6472L7.52647 3.588C7.77768 3.4208 8.00648 3.2832 8.21288 3.1752C8.45848 3.0456 8.78808 2.9072 9.20168 2.76L9.99368 0.5508C10.0528 0.38951 10.16 0.250233 10.3008 0.151745C10.4415 0.0532578 10.6091 0.000295931 10.7809 0L13.2937 0ZM12.7057 1.6524H11.3701L10.6441 3.6852C10.6008 3.80342 10.5316 3.91042 10.4415 3.99828C10.3513 4.08614 10.2426 4.15262 10.1233 4.1928C9.60007 4.3668 9.22208 4.5168 9.00128 4.6332C8.76608 4.7572 8.47008 4.9452 8.11328 5.1972C7.99716 5.2791 7.86217 5.3302 7.72093 5.34573C7.57968 5.36126 7.43681 5.34071 7.30568 5.286L5.10967 4.38L4.25408 5.1888L5.14568 7.0728C5.19905 7.18489 5.22615 7.30769 5.2249 7.43183C5.22366 7.55598 5.1941 7.6782 5.13848 7.7892C4.89848 8.2704 4.73647 8.6256 4.65487 8.844C4.52921 9.2074 4.42109 9.57662 4.33087 9.9504C4.30073 10.0673 4.24536 10.1763 4.16866 10.2696C4.09196 10.3628 3.99578 10.4382 3.88687 10.4904L1.73887 11.5212L1.69567 12.6972L3.63967 13.2876C3.89767 13.3656 4.10168 13.5636 4.18687 13.818C4.37967 14.3956 4.53167 14.818 4.64287 15.0852C4.78916 15.4233 4.95093 15.7544 5.12768 16.0776C5.18747 16.1888 5.22065 16.3123 5.22461 16.4385C5.22856 16.5647 5.20319 16.6901 5.15048 16.8048L4.24927 18.7704L5.10248 19.572L7.24088 18.6576C7.356 18.6081 7.48073 18.585 7.60594 18.59C7.73114 18.595 7.85365 18.6279 7.96448 18.6864C8.40448 18.9168 8.72808 19.076 8.93528 19.164C9.14528 19.2516 9.54728 19.398 10.1305 19.5972C10.246 19.6372 10.3513 19.702 10.4392 19.787C10.5271 19.872 10.5954 19.9751 10.6393 20.0892L11.4889 22.3344L12.6001 22.3104L13.3165 20.3256C13.358 20.2127 13.4233 20.11 13.508 20.0245C13.5927 19.9389 13.6947 19.8726 13.8073 19.83L15.0517 19.3644C15.3669 19.2484 15.7473 19.0644 16.1929 18.8124C16.316 18.7429 16.4547 18.7055 16.596 18.7038C16.7374 18.7022 16.8769 18.7362 17.0017 18.8028L18.8941 19.8048L19.9585 18.8556L19.0273 16.8C18.9794 16.6945 18.9545 16.58 18.9543 16.4641C18.9541 16.3483 18.9786 16.2337 19.0261 16.128C19.2445 15.6396 19.3921 15.2712 19.4665 15.036C19.5409 14.804 19.6149 14.474 19.6885 14.046C19.7136 13.9009 19.7771 13.7651 19.8722 13.6527C19.9673 13.5403 20.0907 13.4552 20.2297 13.4064L22.2073 12.7044L22.2937 11.3364L20.3497 10.5036C20.2465 10.4591 20.1533 10.3943 20.0755 10.3131C19.9978 10.2319 19.9372 10.1359 19.8973 10.0308C19.7589 9.64818 19.6076 9.27036 19.4437 8.898C19.2887 8.57367 19.1206 8.25581 18.9397 7.9452C18.8768 7.83552 18.8403 7.71274 18.833 7.58655C18.8257 7.46035 18.8479 7.33418 18.8977 7.218L19.7677 5.178L18.8509 4.23L17.0653 5.1756C16.9488 5.2377 16.8193 5.27148 16.6873 5.27419C16.5554 5.2769 16.4246 5.24847 16.3057 5.1912C15.9269 5.00227 15.5392 4.83168 15.1441 4.68C14.8075 4.56634 14.464 4.47416 14.1157 4.404C13.9778 4.37408 13.8497 4.30992 13.7431 4.21743C13.6366 4.12494 13.5551 4.00711 13.5061 3.8748L12.7057 1.6524ZM12.0289 6.7692C14.9509 6.7692 17.3209 9.1128 17.3209 12.0024C17.3209 14.892 14.9509 17.2344 12.0289 17.2344C9.10688 17.2344 6.73688 14.892 6.73688 12.0024C6.73688 9.1128 9.10567 6.7704 12.0289 6.7704M12.0289 8.424C10.0285 8.424 8.40728 10.026 8.40728 12.0036C8.40728 13.9812 10.0285 15.5844 12.0289 15.5844C14.0293 15.5844 15.6493 13.9812 15.6493 12.0036C15.6493 10.026 14.0293 8.424 12.0289 8.424Z"
                                            fill="#505050" />
                                    </svg>