<svg width="16" height="17" viewBox="0 0 16 17" fill="none"
                                                xmlns="http://www.w3.org/2000/svg">
                                                <path
                                                    d="M6.65987 15.5333C6.62654 15.5333 6.59321 15.5333 6.55987 15.52C4.00654 15 1.93321 13.12 1.15988 10.6267C1.07988 10.36 1.22655 10.08 1.48655 9.99999C1.75321 9.91999 2.03321 10.0667 2.11321 10.3267C2.77988 12.4733 4.55988 14.0867 6.75988 14.5333C7.03321 14.5867 7.20654 14.8533 7.14654 15.1267C7.09988 15.3667 6.88654 15.5333 6.65987 15.5333Z"
                                                    fill="#FFAE00" />
                                                <path
                                                    d="M14.6335 8.31998C14.3801 8.31998 14.1601 8.12665 14.1335 7.87331C13.8135 4.71331 11.1735 2.33331 8.00015 2.33331C4.82015 2.33331 2.18682 4.71331 1.86682 7.86665C1.84015 8.13998 1.60015 8.34665 1.32015 8.31331C1.04682 8.28665 0.846812 8.03998 0.873479 7.76665C1.24681 4.09998 4.31348 1.33331 8.00015 1.33331C11.6935 1.33331 14.7601 4.09998 15.1268 7.76665C15.1535 8.03998 14.9535 8.28665 14.6801 8.31331C14.6668 8.31998 14.6468 8.31998 14.6335 8.31998Z"
                                                    fill="#FFAE00" />
                                                <path
                                                    d="M9.34006 15.5333C9.10673 15.5333 8.90006 15.3733 8.85339 15.1333C8.80006 14.86 8.97339 14.6 9.24006 14.5467C11.4267 14.1 13.2067 12.5 13.8801 10.3667C13.9601 10.1 14.2467 9.95333 14.5067 10.04C14.7734 10.12 14.9134 10.4067 14.8334 10.6667C14.0467 13.1467 11.9801 15.0067 9.44006 15.5267C9.40673 15.5267 9.37339 15.5333 9.34006 15.5333Z"
                                                    fill="#FFAE00" />
                                            </svg>