<svg width="30" height="28" viewBox="0 0 30 28" fill="none"
                                                    xmlns="http://www.w3.org/2000/svg">
                                                    <path
                                                        d="M13.8607 8.364C14.3674 7.45333 14.6207 7 14.9994 7C15.3781 7 15.6314 7.45333 16.1381 8.364L16.2687 8.59867C16.4127 8.85733 16.4847 8.98533 16.5967 9.07067C16.7101 9.156 16.8501 9.188 17.1301 9.25067L17.3834 9.30933C18.3674 9.532 18.8594 9.64267 18.9767 10.0187C19.0941 10.3947 18.7581 10.788 18.0874 11.572L17.9141 11.7747C17.7234 11.9973 17.6274 12.108 17.5847 12.2467C17.5421 12.3853 17.5567 12.5333 17.5847 12.8307L17.6114 13.1013C17.7127 14.148 17.7634 14.672 17.4581 14.904C17.1514 15.136 16.6901 14.924 15.7687 14.5L15.5314 14.3907C15.2687 14.2707 15.1381 14.2107 14.9994 14.2107C14.8607 14.2107 14.7301 14.2707 14.4674 14.3907L14.2301 14.5C13.3087 14.9253 12.8474 15.136 12.5407 14.904C12.2341 14.672 12.2861 14.148 12.3874 13.1013L12.4141 12.8307C12.4421 12.5333 12.4567 12.3853 12.4141 12.2467C12.3714 12.108 12.2754 11.9973 12.0847 11.7747L11.9114 11.572C11.2407 10.788 10.9047 10.396 11.0221 10.0187C11.1394 9.64267 11.6314 9.532 12.6154 9.30933L12.8687 9.25067C13.1487 9.188 13.2887 9.15733 13.4021 9.07067C13.5141 8.98533 13.5861 8.85733 13.7301 8.59867L13.8607 8.364Z"
                                                        stroke="#EFC003" strokeWidth="1.5" />
                                                    <path
                                                        d="M24.3327 11C24.3327 12.2257 24.0913 13.4393 23.6222 14.5717C23.1532 15.7041 22.4657 16.733 21.599 17.5997C20.7323 18.4663 19.7034 19.1538 18.5711 19.6229C17.4387 20.0919 16.225 20.3333 14.9993 20.3333C13.7737 20.3333 12.56 20.0919 11.4276 19.6229C10.2953 19.1538 9.26637 18.4663 8.39969 17.5997C7.53301 16.733 6.84552 15.7041 6.37647 14.5717C5.90743 13.4393 5.66602 12.2257 5.66602 11C5.66602 8.52464 6.64935 6.15067 8.39969 4.40033C10.15 2.64999 12.524 1.66666 14.9993 1.66666C17.4747 1.66666 19.8487 2.64999 21.599 4.40033C23.3494 6.15067 24.3327 8.52464 24.3327 11Z"
                                                        stroke="#EFC003" strokeWidth="1.5" />
                                                    <path
                                                        d="M6.27445 15L2.98912 18.4013C2.26912 19.1467 1.90912 19.52 1.78379 19.836C1.49979 20.5547 1.74379 21.3533 2.36112 21.732C2.63312 21.8973 3.12245 21.9493 4.10112 22.0533C4.65445 22.112 4.93045 22.14 5.16112 22.2293C5.41916 22.3291 5.6524 22.4838 5.84465 22.6827C6.0369 22.8817 6.18356 23.12 6.27445 23.3813C6.35979 23.6213 6.38779 23.9067 6.44512 24.48C6.54379 25.4933 6.59445 26 6.75445 26.28C7.11979 26.92 7.89179 27.1707 8.58512 26.8773C8.89179 26.7493 9.25179 26.3773 9.97179 25.6307L14.9998 20.424L20.0278 25.6307C20.7478 26.3773 21.1078 26.7493 21.4145 26.8773C22.1078 27.1707 22.8798 26.92 23.2451 26.28C23.4051 26 23.4545 25.4933 23.5545 24.48C23.6118 23.9067 23.6398 23.6213 23.7251 23.3813C23.9171 22.8453 24.3198 22.428 24.8385 22.2293C25.0691 22.14 25.3451 22.112 25.8985 22.0533C26.8771 21.9493 27.3665 21.8973 27.6385 21.732C28.2558 21.3533 28.4998 20.5547 28.2158 19.836C28.0905 19.52 27.7305 19.1467 27.0105 18.4013L23.7251 15"
                                                        stroke="#EFC003" strokeWidth="1.5" />
                                                </svg>