<svg width="32" height="32" viewBox="0 0 32 32" fill="none"
                                    xmlns="http://www.w3.org/2000/svg">
                                    <path
                                        d="M29.3332 13C28.7865 13 28.3332 12.5467 28.3332 12V9.33334C28.3332 5.89334 26.1065 3.66667 22.6665 3.66667H9.33317C5.89317 3.66667 3.6665 5.89334 3.6665 9.33334V12C3.6665 12.5467 3.21317 13 2.6665 13C2.11984 13 1.6665 12.5467 1.6665 12V9.33334C1.6665 4.74667 4.7465 1.66667 9.33317 1.66667H22.6665C27.2532 1.66667 30.3332 4.74667 30.3332 9.33334V12C30.3332 12.5467 29.8798 13 29.3332 13Z"
                                        fill="#2A2A2A" />
                                    <path
                                        d="M22.6665 30.3333H9.33317C4.7465 30.3333 1.6665 27.2533 1.6665 22.6667V20C1.6665 19.4533 2.11984 19 2.6665 19C3.21317 19 3.6665 19.4533 3.6665 20V22.6667C3.6665 26.1067 5.89317 28.3333 9.33317 28.3333H22.6665C26.1065 28.3333 28.3332 26.1067 28.3332 22.6667V20C28.3332 19.4533 28.7865 19 29.3332 19C29.8798 19 30.3332 19.4533 30.3332 20V22.6667C30.3332 27.2533 27.2532 30.3333 22.6665 30.3333Z"
                                        fill="#2A2A2A" />
                                    <path
                                        d="M16.0003 17.4399C15.827 17.4399 15.6536 17.3999 15.4936 17.3066L8.42698 13.2266C7.94698 12.9466 7.78698 12.3333 8.06698 11.8533C8.34698 11.3733 8.96031 11.2132 9.42698 11.4932L15.987 15.2932L22.507 11.5199C22.987 11.2399 23.6003 11.4132 23.867 11.8799C24.147 12.3599 23.9736 12.9732 23.507 13.2532L16.4936 17.3066C16.347 17.3866 16.1736 17.4399 16.0003 17.4399Z"
                                        fill="#2A2A2A" />
                                    <path
                                        d="M16 24.6933C15.4533 24.6933 15 24.2399 15 23.6933V16.4399C15 15.8933 15.4533 15.4399 16 15.4399C16.5467 15.4399 17 15.8933 17 16.4399V23.6933C17 24.2399 16.5467 24.6933 16 24.6933Z"
                                        fill="#2A2A2A" />
                                    <path
                                        d="M16.0003 25.0001C15.227 25.0001 14.467 24.8267 13.8536 24.4934L9.58698 22.1201C8.30698 21.4134 7.32031 19.7201 7.32031 18.2534V13.7334C7.32031 12.2801 8.32031 10.5868 9.58698 9.86677L13.8536 7.4934C15.0803 6.8134 16.9203 6.8134 18.147 7.4934L22.4136 9.86677C23.6936 10.5734 24.6803 12.2667 24.6803 13.7334V18.2534C24.6803 19.7067 23.6803 21.4001 22.4136 22.1201L18.147 24.4934C17.5336 24.8267 16.7736 25.0001 16.0003 25.0001ZM14.827 9.25341L10.5603 11.6267C9.90697 11.9867 9.32031 13.0001 9.32031 13.7334V18.2534C9.32031 19.0001 9.90697 20.0001 10.5603 20.3601L14.827 22.7334C15.4403 23.0667 16.5603 23.0667 17.1736 22.7334L21.4403 20.3601C22.0936 20.0001 22.6803 18.9867 22.6803 18.2534V13.7334C22.6803 12.9867 22.0936 11.9867 21.4403 11.6267L17.1736 9.25341C16.5603 8.92007 15.4403 8.92007 14.827 9.25341Z"
                                        fill="#2A2A2A" />
                                </svg>