<svg width="16" height="16" viewBox="0 0 16 16" fill="none"
                                        xmlns="http://www.w3.org/2000/svg">
                                        <path
                                            d="M9.83335 12.6667C9.83335 13.68 9.01335 14.5 8.00002 14.5C6.98669 14.5 6.16669 13.68 6.16669 12.6667C6.16669 11.6533 6.98669 10.8333 8.00002 10.8333C9.01335 10.8333 9.83335 11.6533 9.83335 12.6667ZM7.16669 12.6667C7.16669 13.1267 7.54002 13.5 8.00002 13.5C8.46002 13.5 8.83335 13.1267 8.83335 12.6667C8.83335 12.2067 8.46002 11.8333 8.00002 11.8333C7.54002 11.8333 7.16669 12.2067 7.16669 12.6667Z"
                                            fill="#737373" />
                                        <path
                                            d="M9.83335 3.33334C9.83335 4.34667 9.01335 5.16667 8.00002 5.16667C6.98669 5.16667 6.16669 4.34667 6.16669 3.33334C6.16669 2.32 6.98669 1.5 8.00002 1.5C9.01335 1.5 9.83335 2.32 9.83335 3.33334ZM7.16669 3.33334C7.16669 3.79334 7.54002 4.16667 8.00002 4.16667C8.46002 4.16667 8.83335 3.79334 8.83335 3.33334C8.83335 2.87334 8.46002 2.5 8.00002 2.5C7.54002 2.5 7.16669 2.87334 7.16669 3.33334Z"
                                            fill="#737373" />
                                        <path
                                            d="M9.83335 7.99999C9.83335 9.01333 9.01335 9.83333 8.00002 9.83333C6.98669 9.83333 6.16669 9.01333 6.16669 7.99999C6.16669 6.98666 6.98669 6.16666 8.00002 6.16666C9.01335 6.16666 9.83335 6.98666 9.83335 7.99999ZM7.16669 7.99999C7.16669 8.46 7.54002 8.83333 8.00002 8.83333C8.46002 8.83333 8.83335 8.46 8.83335 7.99999C8.83335 7.53999 8.46002 7.16666 8.00002 7.16666C7.54002 7.16666 7.16669 7.53999 7.16669 7.99999Z"
                                            fill="#737373" />
                                    </svg>