<svg width="32" height="32" viewBox="0 0 32 32" fill="none"
                                    xmlns="http://www.w3.org/2000/svg">
                                    <path
                                        d="M16 17.7333C15.8266 17.7333 15.6533 17.6933 15.4933 17.6L3.71996 10.7867C3.23997 10.5067 3.07994 9.89332 3.35994 9.41332C3.63994 8.93332 4.23994 8.7733 4.73327 9.0533L16 15.5733L27.1999 9.09334C27.6799 8.81334 28.2933 8.9867 28.5733 9.45336C28.8533 9.93336 28.68 10.5467 28.2133 10.8267L16.52 17.6C16.3466 17.68 16.1733 17.7333 16 17.7333Z"
                                        fill="#2A2A2A" />
                                    <path
                                        d="M16 29.8134C15.4533 29.8134 15 29.3601 15 28.8134V16.72C15 16.1734 15.4533 15.72 16 15.72C16.5467 15.72 17 16.1734 17 16.72V28.8134C17 29.3601 16.5467 29.8134 16 29.8134Z"
                                        fill="#2A2A2A" />
                                    <path
                                        d="M16.0003 30.3333C14.827 30.3333 13.667 30.08 12.747 29.5733L5.62699 25.6134C3.69366 24.5467 2.18701 21.9733 2.18701 19.76V12.2266C2.18701 10.0133 3.69366 7.45337 5.62699 6.37337L12.747 2.42667C14.5737 1.41334 17.427 1.41334 19.2537 2.42667L26.3737 6.38663C28.307 7.4533 29.8136 10.0267 29.8136 12.24V19.7734C29.8136 21.9867 28.307 24.5466 26.3737 25.6266L19.2537 29.5733C18.3337 30.08 17.1737 30.3333 16.0003 30.3333ZM16.0003 3.66666C15.1603 3.66666 14.3337 3.84 13.7203 4.17334L6.60034 8.1333C5.32034 8.8533 4.18701 10.76 4.18701 12.24V19.7734C4.18701 21.24 5.32034 23.16 6.60034 23.88L13.7203 27.84C14.9337 28.52 17.067 28.52 18.2803 27.84L25.4003 23.88C26.6803 23.16 27.8136 21.2534 27.8136 19.7734V12.24C27.8136 10.7733 26.6803 8.8533 25.4003 8.1333L18.2803 4.17334C17.667 3.84 16.8403 3.66666 16.0003 3.66666Z"
                                        fill="#2A2A2A" />
                                    <path
                                        d="M22.6671 18.6534C22.1204 18.6534 21.6671 18.2001 21.6671 17.6534V13.3601L9.50707 6.34676C9.02707 6.06676 8.86705 5.4534 9.14705 4.98673C9.42705 4.50673 10.0271 4.34671 10.5071 4.62671L23.1604 11.9334C23.4671 12.1068 23.6671 12.44 23.6671 12.8V17.6801C23.6671 18.2001 23.2137 18.6534 22.6671 18.6534Z"
                                        fill="#2A2A2A" />
                                </svg>