<svg width="36" height="36" viewBox="0 0 36 36" fill="none" xmlns="http://www.w3.org/2000/svg">
                            <path
                                d="M18.03 30.795C14.535 30.795 11.04 30.24 7.725 29.13C6.465 28.695 5.505 27.81 5.085 26.655C4.65 25.5 4.8 24.225 5.49 23.085L7.215 20.22C7.575 19.62 7.905 18.42 7.905 17.715V13.38C7.905 7.8 12.45 3.255 18.03 3.255C23.61 3.255 28.155 7.8 28.155 13.38V17.715C28.155 18.405 28.485 19.62 28.845 20.235L30.555 23.085C31.2 24.165 31.32 25.47 30.885 26.655C30.45 27.84 29.505 28.74 28.32 29.13C25.02 30.24 21.525 30.795 18.03 30.795ZM18.03 5.505C13.695 5.505 10.155 9.03 10.155 13.38V17.715C10.155 18.81 9.705 20.43 9.15 21.375L7.425 24.24C7.095 24.795 7.005 25.38 7.2 25.875C7.38 26.385 7.83 26.775 8.445 26.985C14.715 29.085 21.36 29.085 27.63 26.985C28.17 26.805 28.59 26.4 28.785 25.86C28.98 25.32 28.935 24.735 28.635 24.24L26.91 21.375C26.34 20.4 25.905 18.795 25.905 17.7V13.38C25.905 9.03 22.38 5.505 18.03 5.505Z"
                                fill="#505050" />
                            <path
                                d="M20.82 5.91C20.715 5.91 20.61 5.895 20.505 5.865C20.07 5.745 19.65 5.655 19.245 5.595C17.97 5.43 16.74 5.52 15.585 5.865C15.165 6 14.715 5.865 14.43 5.55C14.145 5.235 14.055 4.785 14.22 4.38C14.835 2.805 16.335 1.77 18.045 1.77C19.755 1.77 21.255 2.79 21.87 4.38C22.02 4.785 21.945 5.235 21.66 5.55C21.435 5.79 21.12 5.91 20.82 5.91Z"
                                fill="#505050" />
                            <path
                                d="M18.03 34.215C16.545 34.215 15.105 33.615 14.055 32.565C13.005 31.515 12.405 30.075 12.405 28.59H14.655C14.655 29.475 15.015 30.345 15.645 30.975C16.275 31.605 17.145 31.965 18.03 31.965C19.89 31.965 21.405 30.45 21.405 28.59H23.655C23.655 31.695 21.135 34.215 18.03 34.215Z"
                                fill="#505050" />
                        </svg>