<svg width="32" height="32" viewBox="0 0 32 32" fill="none"
                                    xmlns="http://www.w3.org/2000/svg">
                                    <path
                                        d="M26.0003 26.3333H20.667C20.1203 26.3333 19.667 25.88 19.667 25.3333C19.667 24.7867 20.1203 24.3333 20.667 24.3333H26.0003C26.547 24.3333 27.0003 24.7867 27.0003 25.3333C27.0003 25.88 26.547 26.3333 26.0003 26.3333Z"
                                        fill="#2A2A2A" />
                                    <path
                                        d="M16.1997 15.4933C16.1597 15.4933 16.1331 15.4933 16.0931 15.4933C16.0131 15.48 15.9331 15.4933 15.8531 15.4933C11.9864 15.3733 9.06641 12.3333 9.06641 8.58667C9.06641 4.77334 12.1731 1.66667 15.9864 1.66667C19.7997 1.66667 22.9064 4.77334 22.9064 8.58667C22.8931 12.3333 19.9597 15.3733 16.2397 15.4933C16.2264 15.4933 16.2131 15.4933 16.1997 15.4933ZM15.9864 3.66667C13.2797 3.66667 11.0664 5.88 11.0664 8.58667C11.0664 11.2533 13.1464 13.4 15.7997 13.4933C15.8797 13.48 16.0531 13.48 16.2264 13.4933C18.8397 13.3733 20.8931 11.2267 20.9064 8.58667C20.9064 5.88 18.6931 3.66667 15.9864 3.66667Z"
                                        fill="#2A2A2A" />
                                    <path
                                        d="M15.9865 30.08C13.2665 30.08 10.6932 29.3733 8.74655 28.0667C6.89322 26.8267 5.87988 25.1333 5.87988 23.3067C5.87988 21.48 6.90655 19.8 8.74655 18.5733C12.7332 15.9067 19.2132 15.9067 23.1999 18.5733C23.6532 18.88 23.7865 19.5067 23.4799 19.96C23.1732 20.4267 22.5465 20.5467 22.0932 20.24C18.7732 18.0267 13.1732 18.0267 9.85322 20.24C8.57322 21.0933 7.87988 22.1733 7.87988 23.3067C7.87988 24.44 8.57322 25.5467 9.85322 26.4C11.4665 27.48 13.6399 28.0667 15.9732 28.0667C16.5199 28.0667 16.9732 28.52 16.9732 29.0667C16.9732 29.6133 16.5332 30.08 15.9865 30.08Z"
                                        fill="#2A2A2A" />
                                </svg>