<svg width="16" height="17" viewBox="0 0 16 17" fill="none"
                                                xmlns="http://www.w3.org/2000/svg">
                                                <path
                                                    d="M8.00001 15.6666C4.04668 15.6666 0.833344 12.4533 0.833344 8.49998C0.833344 4.54665 4.04668 1.33331 8.00001 1.33331C11.9533 1.33331 15.1667 4.54665 15.1667 8.49998C15.1667 12.4533 11.9533 15.6666 8.00001 15.6666ZM8.00001 2.33331C4.60001 2.33331 1.83334 5.09998 1.83334 8.49998C1.83334 11.9 4.60001 14.6666 8.00001 14.6666C11.4 14.6666 14.1667 11.9 14.1667 8.49998C14.1667 5.09998 11.4 2.33331 8.00001 2.33331Z"
                                                    fill="#FF0000" />
                                                <path
                                                    d="M6.11332 10.8867C5.98666 10.8867 5.85999 10.84 5.75999 10.74C5.56666 10.5467 5.56666 10.2267 5.75999 10.0333L9.53332 6.25999C9.72666 6.06666 10.0467 6.06666 10.24 6.25999C10.4333 6.45332 10.4333 6.77332 10.24 6.96666L6.46666 10.74C6.37332 10.84 6.23999 10.8867 6.11332 10.8867Z"
                                                    fill="#FF0000" />
                                                <path
                                                    d="M9.88666 10.8867C9.75999 10.8867 9.63332 10.84 9.53332 10.74L5.75999 6.96666C5.56666 6.77332 5.56666 6.45332 5.75999 6.25999C5.95332 6.06666 6.27332 6.06666 6.46666 6.25999L10.24 10.0333C10.4333 10.2267 10.4333 10.5467 10.24 10.74C10.14 10.84 10.0133 10.8867 9.88666 10.8867Z"
                                                    fill="#FF0000" />
                                            </svg>