<svg width="36" height="36" viewBox="0 0 36 36" fill="none"
                                xmlns="http://www.w3.org/2000/svg">
                                <path
                                    d="M14.3552 28.23C14.0702 28.23 13.7852 28.125 13.5602 27.9L4.45516 18.795C4.02016 18.36 4.02016 17.64 4.45516 17.205L13.5602 8.1C13.9952 7.665 14.7152 7.665 15.1502 8.1C15.5852 8.535 15.5852 9.255 15.1502 9.69L6.84016 18L15.1502 26.31C15.5852 26.745 15.5852 27.465 15.1502 27.9C14.9402 28.125 14.6402 28.23 14.3552 28.23Z"
                                    fill="#1D1D1D" />
                                <path
                                    d="M30.7509 19.125H5.50586C4.89086 19.125 4.38086 18.615 4.38086 18C4.38086 17.385 4.89086 16.875 5.50586 16.875H30.7509C31.3659 16.875 31.8759 17.385 31.8759 18C31.8759 18.615 31.3659 19.125 30.7509 19.125Z"
                                    fill="#1D1D1D" />
                            </svg>