<svg width="32" height="32" viewBox="0 0 32 32" fill="none"
                                    xmlns="http://www.w3.org/2000/svg">
                                    <path
                                        d="M16 17.7331C15.8266 17.7331 15.6533 17.6932 15.4933 17.5998L3.71997 10.7865C3.23997 10.5065 3.07994 9.89316 3.35994 9.41316C3.63994 8.93316 4.2533 8.77313 4.71996 9.05313L15.9866 15.5732L27.1866 9.09317C27.6666 8.81317 28.28 8.98653 28.5466 9.4532C28.8266 9.9332 28.6533 10.5465 28.1866 10.8265L16.4933 17.5998C16.3466 17.6798 16.1733 17.7331 16 17.7331Z"
                                        fill="#2A2A2A" />
                                    <path
                                        d="M16 29.8131C15.4533 29.8131 15 29.3597 15 28.8131V16.7197C15 16.1731 15.4533 15.7197 16 15.7197C16.5467 15.7197 17 16.1731 17 16.7197V28.8131C17 29.3597 16.5467 29.8131 16 29.8131Z"
                                        fill="#2A2A2A" />
                                    <path
                                        d="M16 30.3332C14.8267 30.3332 13.6533 30.0799 12.7467 29.5599L5.62667 25.6133C3.69333 24.5466 2.17334 21.9732 2.17334 19.7599V12.2132C2.17334 9.99987 3.69333 7.43993 5.62667 6.35993L12.7467 2.41323C14.56 1.38657 17.4133 1.38657 19.24 2.41323L26.36 6.35993C28.2933 7.4266 29.8133 9.99987 29.8133 12.2132V19.7599C29.8133 19.8932 29.8133 19.9999 29.7867 20.1332C29.72 20.4799 29.4667 20.7732 29.1333 20.8799C28.8 20.9999 28.4266 20.9199 28.1466 20.6933C26.6133 19.3599 24.24 19.3066 22.6267 20.5999C21.6 21.4133 21 22.6532 21 23.9732C21 24.7599 21.2133 25.5333 21.6267 26.1999C21.7333 26.3866 21.84 26.5333 21.96 26.6799C22.16 26.9066 22.24 27.2132 22.1867 27.5066C22.1334 27.7999 21.9467 28.0533 21.68 28.1999L19.24 29.5465C18.3333 30.0799 17.1733 30.3332 16 30.3332ZM16 3.66657C15.1733 3.66657 14.3333 3.83991 13.7333 4.17324L6.61332 8.11994C5.31999 8.82661 4.19999 10.7465 4.19999 12.2132V19.7599C4.19999 21.2266 5.33332 23.1466 6.61332 23.8533L13.7333 27.7999C14.9466 28.4799 17.0667 28.4799 18.28 27.7999L19.7733 26.9732C19.28 26.0799 19.0133 25.0399 19.0133 23.9732C19.0133 22.0265 19.88 20.2266 21.3867 19.0266C23.2 17.5733 25.8 17.2665 27.8267 18.1332V12.1866C27.8267 10.7199 26.6933 8.79991 25.4133 8.09325L18.2933 4.14655C17.6667 3.83988 16.8267 3.66657 16 3.66657Z"
                                        fill="#2A2A2A" />
                                    <path
                                        d="M25.3333 30.3333C23.12 30.3333 21.04 29.16 19.92 27.2533C19.32 26.2933 19 25.16 19 24C19 22.0533 19.8667 20.2533 21.3733 19.0533C22.4933 18.16 23.9067 17.6667 25.3333 17.6667C28.8267 17.6667 31.6667 20.5067 31.6667 24C31.6667 25.16 31.3467 26.2934 30.7467 27.2667C30.4267 27.8267 29.9866 28.3333 29.48 28.76C28.3733 29.7733 26.8933 30.3333 25.3333 30.3333ZM25.3333 19.6667C24.3467 19.6667 23.4133 20 22.6267 20.6266C21.6 21.44 21 22.68 21 24C21 24.7867 21.2133 25.56 21.6267 26.2267C22.4133 27.56 23.8 28.3333 25.3333 28.3333C26.3867 28.3333 27.4 27.9467 28.1733 27.2533C28.52 26.96 28.8133 26.6133 29.0267 26.24C29.4533 25.56 29.6667 24.7867 29.6667 24C29.6667 21.6133 27.72 19.6667 25.3333 19.6667Z"
                                        fill="#2A2A2A" />
                                    <path
                                        d="M26.7597 26.3866C26.5064 26.3866 26.2531 26.2933 26.0531 26.0933L23.2397 23.28C22.853 22.8933 22.853 22.2533 23.2397 21.8667C23.6264 21.48 24.2664 21.48 24.653 21.8667L27.4664 24.68C27.8531 25.0666 27.8531 25.7066 27.4664 26.0933C27.2664 26.2933 27.0131 26.3866 26.7597 26.3866Z"
                                        fill="#2A2A2A" />
                                    <path
                                        d="M23.9068 26.4265C23.6535 26.4265 23.4002 26.3332 23.2002 26.1332C22.8135 25.7465 22.8135 25.1065 23.2002 24.7198L26.0135 21.9065C26.4002 21.5199 27.0402 21.5199 27.4268 21.9065C27.8135 22.2932 27.8135 22.9332 27.4268 23.3199L24.6135 26.1332C24.4135 26.3332 24.1602 26.4265 23.9068 26.4265Z"
                                        fill="#2A2A2A" />
                                </svg>