<svg width="24" height="25" viewBox="0 0 24 25" fill="none"
                                            xmlns="http://www.w3.org/2000/svg">
                                            <path
                                                d="M8.99945 18.25C8.58945 18.25 8.24945 17.91 8.24945 17.5V13.31L7.52945 14.03C7.23945 14.32 6.75945 14.32 6.46945 14.03C6.17945 13.74 6.17945 13.26 6.46945 12.97L8.46945 10.97C8.67945 10.76 9.00945 10.69 9.28945 10.81C9.56945 10.92 9.74945 11.2 9.74945 11.5V17.5C9.74945 17.91 9.40945 18.25 8.99945 18.25Z"
                                                fill="#831FC1" />
                                            <path
                                                d="M10.9995 14.25C10.8095 14.25 10.6195 14.18 10.4695 14.03L8.46945 12.03C8.17945 11.74 8.17945 11.26 8.46945 10.97C8.75945 10.68 9.23945 10.68 9.52945 10.97L11.5295 12.97C11.8195 13.26 11.8195 13.74 11.5295 14.03C11.3795 14.18 11.1895 14.25 10.9995 14.25Z"
                                                fill="#831FC1" />
                                            <path
                                                d="M15 23.25H9C3.57 23.25 1.25 20.93 1.25 15.5V9.5C1.25 4.07 3.57 1.75 9 1.75H14C14.41 1.75 14.75 2.09 14.75 2.5C14.75 2.91 14.41 3.25 14 3.25H9C4.39 3.25 2.75 4.89 2.75 9.5V15.5C2.75 20.11 4.39 21.75 9 21.75H15C19.61 21.75 21.25 20.11 21.25 15.5V10.5C21.25 10.09 21.59 9.75 22 9.75C22.41 9.75 22.75 10.09 22.75 10.5V15.5C22.75 20.93 20.43 23.25 15 23.25Z"
                                                fill="#831FC1" />
                                            <path
                                                d="M22 11.25H18C14.58 11.25 13.25 9.91999 13.25 6.49999V2.49999C13.25 2.19999 13.43 1.91999 13.71 1.80999C13.99 1.68999 14.31 1.75999 14.53 1.96999L22.53 9.96999C22.74 10.18 22.81 10.51 22.69 10.79C22.57 11.07 22.3 11.25 22 11.25ZM14.75 4.30999V6.49999C14.75 9.07999 15.42 9.74999 18 9.74999H20.19L14.75 4.30999Z"
                                                fill="#831FC1" />
                                        </svg>