<svg width="24" height="25" viewBox="0 0 24 25" fill="none" xmlns="http://www.w3.org/2000/svg">
<path d="M1.5 12.5C1.5 15.2848 2.60625 17.9555 4.57538 19.9246C6.54451 21.8938 9.21523 23 12 23C14.7848 23 17.4555 21.8938 19.4246 19.9246C21.3938 17.9555 22.5 15.2848 22.5 12.5C22.5 9.71523 21.3938 7.04451 19.4246 5.07538C17.4555 3.10625 14.7848 2 12 2C9.21523 2 6.54451 3.10625 4.57538 5.07538C2.60625 7.04451 1.5 9.71523 1.5 12.5ZM24 12.5C24 15.6826 22.7357 18.7348 20.4853 20.9853C18.2348 23.2357 15.1826 24.5 12 24.5C8.8174 24.5 5.76516 23.2357 3.51472 20.9853C1.26428 18.7348 0 15.6826 0 12.5C0 9.3174 1.26428 6.26516 3.51472 4.01472C5.76516 1.76428 8.8174 0.5 12 0.5C15.1826 0.5 18.2348 1.76428 20.4853 4.01472C22.7357 6.26516 24 9.3174 24 12.5ZM8.112 9.335C6.867 9.335 6.135 10.295 6.135 11.9645V13.0775C6.135 14.7395 6.8535 15.668 8.112 15.668C9.147 15.668 9.819 15.0155 9.8925 14.093H11.613V14.264C11.526 15.9845 10.0695 17.171 8.0985 17.171C5.6805 17.171 4.3215 15.629 4.3215 13.0775V11.957C4.3215 9.407 5.6925 7.832 8.0985 7.832C10.077 7.832 11.5335 9.05 11.613 10.8305V10.9955H9.8925C9.819 10.0385 9.1335 9.335 8.112 9.335ZM16.218 9.335C14.9715 9.335 14.2395 10.295 14.2395 11.9645V13.0775C14.2395 14.7395 14.9595 15.668 16.218 15.668C17.253 15.668 17.925 15.0155 17.997 14.093H19.7175V14.264C19.632 15.9845 18.1755 17.171 16.2045 17.171C13.785 17.171 12.4275 15.629 12.4275 13.0775V11.957C12.4275 9.407 13.7985 7.832 16.2045 7.832C18.1815 7.832 19.6395 9.05 19.7175 10.8305V10.9955H17.997C17.925 10.0385 17.2395 9.335 16.218 9.335Z" fill="white"/>
</svg>
