<svg width="35" height="35" viewBox="0 0 35 35" fill="none" xmlns="http://www.w3.org/2000/svg">
<path d="M33.9594 7.19844C33.842 7.05802 33.6953 6.94509 33.5295 6.8676C33.3637 6.79011 33.183 6.74997 33 6.75H7.79375L6.84375 1.52656C6.79142 1.23854 6.63967 0.978024 6.41495 0.790423C6.19023 0.602823 5.9068 0.500042 5.61406 0.5H1.75C1.41848 0.5 1.10054 0.631696 0.866116 0.866116C0.631696 1.10054 0.5 1.41848 0.5 1.75C0.5 2.08152 0.631696 2.39946 0.866116 2.63388C1.10054 2.8683 1.41848 3 1.75 3H4.5625L8.55625 24.9203C8.67389 25.5704 8.96119 26.1779 9.38906 26.6812C8.79851 27.2328 8.37226 27.9372 8.15759 28.7163C7.94292 29.4953 7.9482 30.3186 8.17286 31.0948C8.39752 31.871 8.83277 32.5699 9.43035 33.1139C10.0279 33.6578 10.7645 34.0256 11.5584 34.1766C12.3522 34.3275 13.1724 34.2555 13.9279 33.9688C14.6834 33.682 15.3447 33.1916 15.8385 32.552C16.3323 31.9123 16.6393 31.1484 16.7255 30.3449C16.8116 29.5414 16.6735 28.7298 16.3266 28H23.4234C23.1438 28.5854 22.9991 29.2262 23 29.875C23 30.7403 23.2566 31.5862 23.7373 32.3056C24.2181 33.0251 24.9013 33.5858 25.7008 33.917C26.5002 34.2481 27.3799 34.3347 28.2285 34.1659C29.0772 33.9971 29.8567 33.5804 30.4686 32.9686C31.0804 32.3567 31.4971 31.5772 31.6659 30.7285C31.8347 29.8799 31.7481 29.0002 31.417 28.2008C31.0858 27.4013 30.5251 26.7181 29.8056 26.2373C29.0862 25.7566 28.2403 25.5 27.375 25.5H12.2453C11.9526 25.5 11.6691 25.3972 11.4444 25.2096C11.2197 25.022 11.068 24.7615 11.0156 24.4734L10.5203 21.75H28.6453C29.5235 21.7499 30.3738 21.4415 31.048 20.8787C31.7221 20.3159 32.1774 19.5344 32.3344 18.6703L34.2344 8.22344C34.2665 8.04287 34.2586 7.85745 34.211 7.6803C34.1635 7.50316 34.0776 7.33865 33.9594 7.19844ZM14.25 29.875C14.25 30.2458 14.14 30.6084 13.934 30.9167C13.728 31.225 13.4351 31.4654 13.0925 31.6073C12.7499 31.7492 12.3729 31.7863 12.0092 31.714C11.6455 31.6416 11.3114 31.463 11.0492 31.2008C10.787 30.9386 10.6084 30.6045 10.536 30.2408C10.4637 29.8771 10.5008 29.5001 10.6427 29.1575C10.7846 28.8149 11.025 28.522 11.3333 28.316C11.6416 28.11 12.0042 28 12.375 28C12.8723 28 13.3492 28.1975 13.7008 28.5492C14.0525 28.9008 14.25 29.3777 14.25 29.875ZM29.25 29.875C29.25 30.2458 29.14 30.6084 28.934 30.9167C28.728 31.225 28.4351 31.4654 28.0925 31.6073C27.7499 31.7492 27.3729 31.7863 27.0092 31.714C26.6455 31.6416 26.3114 31.463 26.0492 31.2008C25.7869 30.9386 25.6084 30.6045 25.536 30.2408C25.4637 29.8771 25.5008 29.5001 25.6427 29.1575C25.7846 28.8149 26.025 28.522 26.3333 28.316C26.6416 28.11 27.0042 28 27.375 28C27.8723 28 28.3492 28.1975 28.7008 28.5492C29.0525 28.9008 29.25 29.3777 29.25 29.875ZM29.875 18.2234C29.8225 18.5122 29.6701 18.7734 29.4444 18.9611C29.2187 19.1488 28.9342 19.2511 28.6406 19.25H10.0656L8.24844 9.25H31.5016L29.875 18.2234Z" fill="#831FC1"/>
</svg>
