<svg width="25" height="24" viewBox="0 0 25 24" fill="none" xmlns="http://www.w3.org/2000/svg">
            <path
              d="M19.75 10.75H17.75C15.33 10.75 14 9.42 14 7V5C14 2.58 15.33 1.25 17.75 1.25H19.75C22.17 1.25 23.5 2.58 23.5 5V7C23.5 9.42 22.17 10.75 19.75 10.75ZM17.75 2.75C16.17 2.75 15.5 3.42 15.5 5V7C15.5 8.58 16.17 9.25 17.75 9.25H19.75C21.33 9.25 22 8.58 22 7V5C22 3.42 21.33 2.75 19.75 2.75H17.75Z"
              fill="#505050" />
            <path
              d="M7.75 22.75H5.75C3.33 22.75 2 21.42 2 19V17C2 14.58 3.33 13.25 5.75 13.25H7.75C10.17 13.25 11.5 14.58 11.5 17V19C11.5 21.42 10.17 22.75 7.75 22.75ZM5.75 14.75C4.17 14.75 3.5 15.42 3.5 17V19C3.5 20.58 4.17 21.25 5.75 21.25H7.75C9.33 21.25 10 20.58 10 19V17C10 15.42 9.33 14.75 7.75 14.75H5.75Z"
              fill="#505050" />
            <path
              d="M6.75 10.75C4.13 10.75 2 8.62 2 6C2 3.38 4.13 1.25 6.75 1.25C9.37 1.25 11.5 3.38 11.5 6C11.5 8.62 9.37 10.75 6.75 10.75ZM6.75 2.75C4.96 2.75 3.5 4.21 3.5 6C3.5 7.79 4.96 9.25 6.75 9.25C8.54 9.25 10 7.79 10 6C10 4.21 8.54 2.75 6.75 2.75Z"
              fill="#505050" />
            <path
              d="M18.75 22.75C16.13 22.75 14 20.62 14 18C14 15.38 16.13 13.25 18.75 13.25C21.37 13.25 23.5 15.38 23.5 18C23.5 20.62 21.37 22.75 18.75 22.75ZM18.75 14.75C16.96 14.75 15.5 16.21 15.5 18C15.5 19.79 16.96 21.25 18.75 21.25C20.54 21.25 22 19.79 22 18C22 16.21 20.54 14.75 18.75 14.75Z"
              fill="#505050" />
          </svg>