<svg width="16" height="16" viewBox="0 0 16 16" fill="none" xmlns="http://www.w3.org/2000/svg">
<path d="M6.18132 1.604C6.23385 1.48586 6.2509 1.355 6.23039 1.22735C6.20988 1.09969 6.15269 0.980759 6.06579 0.885028C5.97889 0.789296 5.86603 0.720899 5.74095 0.688166C5.61587 0.655433 5.48397 0.659777 5.36132 0.700668C4.39332 1.02333 3.62132 1.65867 2.91332 2.36667C2.20159 3.07312 1.6367 3.91344 1.25121 4.8392C0.865728 5.76496 0.667267 6.75786 0.667267 7.76067C0.667267 8.76348 0.865728 9.75638 1.25121 10.6821C1.6367 11.6079 2.20159 12.4482 2.91332 13.1547C5.92532 16.1673 10.5867 15.9953 13.564 13.018C14.272 12.31 14.9067 11.538 15.2293 10.5693C15.2689 10.4503 15.2741 10.3224 15.2442 10.2005C15.2144 10.0786 15.1507 9.96764 15.0606 9.88031C14.9705 9.79298 14.8576 9.73286 14.7348 9.70686C14.612 9.68086 14.4844 9.69004 14.3666 9.73334C11.9733 10.6147 9.24998 10.2227 7.41132 8.38333C5.56665 6.53867 5.19199 3.82933 6.18132 1.604Z" fill="#F3E9F9"/>
</svg>
