<svg width="28" height="24" viewBox="0 0 28 24" fill="none" xmlns="http://www.w3.org/2000/svg">
<g clipPath="url(#clip0_925_2219)">
<path d="M25.4287 22.2858H3.14296C1.7201 22.2858 0.571533 21.1372 0.571533 19.7144V4.28578C0.571533 2.86293 1.7201 1.71436 3.14296 1.71436H25.4287C26.8515 1.71436 28.0001 2.86293 28.0001 4.28578V19.7144C28.0001 21.1372 26.8515 22.2858 25.4287 22.2858ZM3.14296 3.42864C2.66296 3.42864 2.28582 3.80578 2.28582 4.28578V19.7144C2.28582 20.1944 2.66296 20.5715 3.14296 20.5715H25.4287C25.9087 20.5715 26.2858 20.1944 26.2858 19.7144V4.28578C26.2858 3.80578 25.9087 3.42864 25.4287 3.42864H3.14296Z" fill="#831FC1"/>
<path d="M14.2858 15.3599C13.0858 15.3599 11.9887 14.8799 11.1658 14.0056L2.16583 4.43985C1.84011 4.097 1.85726 3.54843 2.20011 3.22271C2.54297 2.897 3.09154 2.91414 3.41726 3.257L12.4173 12.8227C13.3944 13.8684 15.1773 13.8684 16.1544 12.8227L25.1544 3.27414C25.4801 2.93128 26.0287 2.91414 26.3715 3.23985C26.7144 3.56557 26.7315 4.11414 26.4058 4.457L17.4058 14.0227C16.583 14.897 15.4858 15.377 14.2858 15.377V15.3599Z" fill="#831FC1"/>
</g>
<defs>
<clipPath id="clip0_925_2219">
<rect width="27.4286" height="24" fill="white" transform="translate(0.571533)"/>
</clipPath>
</defs>
</svg>
