<svg width="48" height="47" viewBox="0 0 48 47" fill="none" xmlns="http://www.w3.org/2000/svg">
<path d="M1.71436 42.3572V4.64293C1.71436 3.73361 2.07558 2.86154 2.71856 2.21856C3.36154 1.57558 4.23361 1.21436 5.14293 1.21436H42.8572C43.7665 1.21436 44.6386 1.57558 45.2816 2.21856C45.9246 2.86154 46.2858 3.73361 46.2858 4.64293V42.3572C46.2858 43.2665 45.9246 44.1386 45.2816 44.7816C44.6386 45.4246 43.7665 45.7858 42.8572 45.7858H32.5715V29.5344H35.0058C35.5605 29.5344 36.0924 29.314 36.4846 28.9218C36.8769 28.5296 37.0972 27.9976 37.0972 27.4429V24.8029C37.0972 24.2482 36.8769 23.7163 36.4846 23.3241C36.0924 22.9318 35.5605 22.7115 35.0058 22.7115H32.7086V19.4886C32.7086 16.6086 34.0115 16.6086 35.3144 16.6086H36.9944C37.2703 16.62 37.5454 16.5706 37.8001 16.464C38.0549 16.3573 38.2831 16.196 38.4686 15.9915C38.6679 15.8018 38.8256 15.5728 38.9318 15.3191C39.0381 15.0653 39.0905 14.7923 39.0858 14.5172V11.9801C39.0949 11.7009 39.049 11.4226 38.9505 11.1612C38.8521 10.8998 38.703 10.6604 38.512 10.4566C38.3209 10.2528 38.0916 10.0886 37.8371 9.97355C37.5826 9.85845 37.3078 9.79464 37.0286 9.78578H33.0858C31.9353 9.74253 30.7892 9.94953 29.7265 10.3925C28.6639 10.8355 27.71 11.5038 26.9309 12.3514C26.1518 13.199 25.5659 14.2056 25.2138 15.3017C24.8617 16.3978 24.7517 17.5573 24.8915 18.7001V22.7115H22.6972C22.4197 22.7069 22.144 22.7577 21.8863 22.8607C21.6286 22.9638 21.394 23.1171 21.1961 23.3118C20.9983 23.5065 20.8412 23.7386 20.7339 23.9946C20.6267 24.2506 20.5715 24.5254 20.5715 24.8029V27.4429C20.5715 27.7205 20.6267 27.9953 20.7339 28.2513C20.8412 28.5073 20.9983 28.7394 21.1961 28.934C21.394 29.1287 21.6286 29.282 21.8863 29.3851C22.144 29.4882 22.4197 29.5389 22.6972 29.5344H24.8915V45.7858H5.14293C4.23361 45.7858 3.36154 45.4246 2.71856 44.7816C2.07558 44.1386 1.71436 43.2665 1.71436 42.3572Z" stroke="#831FC1" strokeWidth="2" strokeLinecap="round" strokeLinejoin="round"/>
</svg>
