 <svg
              width="28"
              height="25"
              viewBox="0 0 28 25"
              fill="none"
              xmlns="http://www.w3.org/2000/svg"
            >
              <g clipPath="url(#clip0_1007_15189)">
                <path
                  d="M24.9294 22.7857H2.64369C1.22084 22.7857 0.0722656 21.6372 0.0722656 20.2143V4.78572C0.0722656 3.36287 1.22084 2.21429 2.64369 2.21429H24.9294C26.3523 2.21429 27.5008 3.36287 27.5008 4.78572V20.2143C27.5008 21.6372 26.3523 22.7857 24.9294 22.7857ZM2.64369 3.92858C2.16369 3.92858 1.78655 4.30572 1.78655 4.78572V20.2143C1.78655 20.6943 2.16369 21.0714 2.64369 21.0714H24.9294C25.4094 21.0714 25.7866 20.6943 25.7866 20.2143V4.78572C25.7866 4.30572 25.4094 3.92858 24.9294 3.92858H2.64369Z"
                  fill="#2A2A2A"
                ></path>
                <path
                  d="M13.7856 15.86C12.5856 15.86 11.4884 15.38 10.6656 14.5057L1.66558 4.94001C1.33987 4.59715 1.35701 4.04858 1.69987 3.72286C2.04273 3.39715 2.5913 3.41429 2.91701 3.75715L11.917 13.3229C12.8942 14.3686 14.677 14.3686 15.6542 13.3229L24.6542 3.77429C24.9799 3.43144 25.5284 3.41429 25.8713 3.74001C26.2142 4.06572 26.2313 4.61429 25.9056 4.95715L16.9056 14.5229C16.0827 15.3972 14.9856 15.8771 13.7856 15.8771V15.86Z"
                  fill="#2A2A2A"
                ></path>
              </g>
              <defs>
                <clipPath id="clip0_1007_15189">
                  <rect
                    width="27.4286"
                    height="24"
                    fill="white"
                    transform="translate(0.0722656 0.5)"
                  ></rect>
                </clipPath>
              </defs>
            </svg>