 <svg
                  width="28"
                  height="24"
                  viewBox="0 0 28 24"
                  fill="none"
                  xmlns="http://www.w3.org/2000/svg"
                >
                  <g clipPath="url(#clip0_1007_15159)">
                    <path
                      d="M25.3103 22.2857H3.02455C1.6017 22.2857 0.453125 21.1372 0.453125 19.7143V4.28572C0.453125 2.86287 1.6017 1.71429 3.02455 1.71429H25.3103C26.7331 1.71429 27.8817 2.86287 27.8817 4.28572V19.7143C27.8817 21.1372 26.7331 22.2857 25.3103 22.2857ZM3.02455 3.42858C2.54455 3.42858 2.16741 3.80572 2.16741 4.28572V19.7143C2.16741 20.1943 2.54455 20.5714 3.02455 20.5714H25.3103C25.7903 20.5714 26.1674 20.1943 26.1674 19.7143V4.28572C26.1674 3.80572 25.7903 3.42858 25.3103 3.42858H3.02455Z"
                      fill="white"
                    ></path>
                    <path
                      d="M14.1664 15.36C12.9664 15.36 11.8693 14.88 11.0464 14.0057L2.04644 4.43998C1.72073 4.09712 1.73787 3.54855 2.08073 3.22283C2.42359 2.89712 2.97216 2.91426 3.29787 3.25712L12.2979 12.8228C13.275 13.8685 15.0579 13.8685 16.035 12.8228L25.035 3.27426C25.3607 2.93141 25.9093 2.91426 26.2522 3.23998C26.595 3.56569 26.6122 4.11426 26.2864 4.45712L17.2864 14.0228C16.4636 14.8971 15.3664 15.3771 14.1664 15.3771V15.36Z"
                      fill="white"
                    ></path>
                  </g>
                  <defs>
                    <clipPath id="clip0_1007_15159">
                      <rect
                        width="27.4286"
                        height="24"
                        fill="white"
                        transform="translate(0.453125)"
                      ></rect>
                    </clipPath>
                  </defs>
                </svg>