<svg className="menu-active" width="25" height="24" viewBox="0 0 25 24" fill="none"
            xmlns="http://www.w3.org/2000/svg">
            <path
              d="M18.04 22.75H6.46C3.72 22.75 1.5 20.52 1.5 17.78V10.37C1.5 9.00997 2.34 7.29997 3.42 6.45997L8.81 2.25997C10.43 0.999974 13.02 0.939974 14.7 2.11997L20.88 6.44997C22.07 7.27997 23 9.05997 23 10.51V17.79C23 20.52 20.78 22.75 18.04 22.75ZM9.73 3.43997L4.34 7.63997C3.63 8.19997 3 9.46997 3 10.37V17.78C3 19.69 4.55 21.25 6.46 21.25H18.04C19.95 21.25 21.5 19.7 21.5 17.79V10.51C21.5 9.54997 20.81 8.21997 20.02 7.67997L13.84 3.34997C12.7 2.54997 10.82 2.58997 9.73 3.43997Z"
              fill="#505050" />
            <path
              d="M12.25 18.75C11.84 18.75 11.5 18.41 11.5 18V15C11.5 14.59 11.84 14.25 12.25 14.25C12.66 14.25 13 14.59 13 15V18C13 18.41 12.66 18.75 12.25 18.75Z"
              fill="#505050" />
          </svg>