<svg width="42" height="43" viewBox="0 0 42 43" fill="none" xmlns="http://www.w3.org/2000/svg">
<path d="M31 1.5H11C5.47715 1.5 1 5.97715 1 11.5V31.5C1 37.0228 5.47715 41.5 11 41.5H31C36.5228 41.5 41 37.0228 41 31.5V11.5C41 5.97715 36.5228 1.5 31 1.5Z" stroke="#831FC1" strokeWidth="2" strokeLinecap="round" strokeLinejoin="round"/>
<path d="M31.9999 10.5H32.0199M28.9999 20.24C29.2467 21.9045 28.9624 23.6044 28.1874 25.098C27.4124 26.5916 26.1862 27.8028 24.6832 28.5593C23.1801 29.3159 21.4768 29.5792 19.8155 29.3119C18.1542 29.0445 16.6194 28.2602 15.4296 27.0703C14.2397 25.8805 13.4554 24.3457 13.188 22.6844C12.9207 21.0231 13.184 19.3198 13.9406 17.8167C14.6971 16.3137 15.9083 15.0875 17.4019 14.3125C18.8955 13.5375 20.5954 13.2532 22.2599 13.5C23.9577 13.7518 25.5296 14.5429 26.7433 15.7566C27.957 16.9703 28.7481 18.5422 28.9999 20.24Z" stroke="#831FC1" strokeWidth="2" strokeLinecap="round" strokeLinejoin="round"/>
</svg>
