 <svg
                  width="25"
                  height="24"
                  viewBox="0 0 25 24"
                  fill="none"
                  xmlns="http://www.w3.org/2000/svg"
                >
                  <path
                    d="M12.7258 20.82C12.5626 20.9372 12.3667 21.0003 12.1658 21.0003C11.9649 21.0003 11.769 20.9372 11.6058 20.82C6.7768 17.378 1.6518 10.298 6.8328 5.182C8.25514 3.78285 10.1706 2.99912 12.1658 3C14.1658 3 16.0848 3.785 17.4988 5.181C22.6798 10.297 17.5548 17.376 12.7258 20.82Z"
                    stroke="white"
                    strokeWidth="1.5"
                    strokeLinecap="round"
                    strokeLinejoin="round"
                  ></path>
                  <path
                    d="M12.166 12C12.6964 12 13.2052 11.7893 13.5802 11.4142C13.9553 11.0391 14.166 10.5304 14.166 10C14.166 9.46957 13.9553 8.96086 13.5802 8.58579C13.2052 8.21071 12.6964 8 12.166 8C11.6356 8 11.1269 8.21071 10.7518 8.58579C10.3767 8.96086 10.166 9.46957 10.166 10C10.166 10.5304 10.3767 11.0391 10.7518 11.4142C11.1269 11.7893 11.6356 12 12.166 12Z"
                    stroke="white"
                    strokeWidth="1.5"
                    strokeLinecap="round"
                    strokeLinejoin="round"
                  ></path>
                </svg>