<svg width="17" height="20" viewBox="0 0 17 20" fill="none" xmlns="http://www.w3.org/2000/svg">
<path d="M9.22665 18.82C9.06345 18.9372 8.86758 19.0003 8.66665 19.0003C8.46572 19.0003 8.26985 18.9372 8.10665 18.82C3.27765 15.378 -1.84735 8.298 3.33365 3.182C4.75599 1.78285 6.67149 0.999124 8.66665 1C10.6667 1 12.5857 1.785 13.9997 3.181C19.1807 8.297 14.0557 15.376 9.22665 18.82Z" stroke="#831FC1" strokeWidth="1.5" strokeLinecap="round" strokeLinejoin="round"/>
<path d="M8.66663 10C9.19706 10 9.70577 9.78929 10.0808 9.41421C10.4559 9.03914 10.6666 8.53043 10.6666 8C10.6666 7.46957 10.4559 6.96086 10.0808 6.58579C9.70577 6.21071 9.19706 6 8.66663 6C8.13619 6 7.62749 6.21071 7.25241 6.58579C6.87734 6.96086 6.66663 7.46957 6.66663 8C6.66663 8.53043 6.87734 9.03914 7.25241 9.41421C7.62749 9.78929 8.13619 10 8.66663 10Z" stroke="#831FC1" strokeWidth="1.5" strokeLinecap="round" strokeLinejoin="round"/>
</svg>
