 <svg width="40" height="40" viewBox="0 0 40 40" fill="none" xmlns="http://www.w3.org/2000/svg">
              <path d="M32.6967 35.4168C32.6967 29.4135 26.0033 24.5335 20 24.5335C13.9967 24.5335 7.30334 29.4135 7.30334 35.4168M20 19.0935C21.9242 19.0935 23.7695 18.3291 25.1301 16.9686C26.4906 15.608 27.255 13.7626 27.255 11.8385C27.255 9.91435 26.4906 8.06901 25.1301 6.70844C23.7695 5.34786 21.9242 4.5835 20 4.5835C18.0759 4.5835 16.2305 5.34786 14.87 6.70844C13.5094 8.06901 12.745 9.91435 12.745 11.8385C12.745 13.7626 13.5094 15.608 14.87 16.9686C16.2305 18.3291 18.0759 19.0935 20 19.0935Z" stroke="#831FC1" strokeWidth="2.5" strokeLinecap="round" strokeLinejoin="round"></path>
            </svg>