<svg width="16" height="16" viewBox="0 0 16 16" fill="none" xmlns="http://www.w3.org/2000/svg">
<path d="M8 2V3.33333M8 12.6693V14.0027M3.33333 8H2M14 8H12.6667M12.6667 3.33333L11.3333 4.66667M3.33333 3.33333L4.66667 4.66667M4.66667 11.3333L3.33333 12.6667M12.6667 12.6667L11.3333 11.3333M10.6667 8C10.6667 8.70724 10.3857 9.38552 9.88562 9.88562C9.38552 10.3857 8.70724 10.6667 8 10.6667C7.29276 10.6667 6.61448 10.3857 6.11438 9.88562C5.61428 9.38552 5.33333 8.70724 5.33333 8C5.33333 7.29276 5.61428 6.61448 6.11438 6.11438C6.61448 5.61428 7.29276 5.33333 8 5.33333C8.70724 5.33333 9.38552 5.61428 9.88562 6.11438C10.3857 6.61448 10.6667 7.29276 10.6667 8Z" stroke="#F3E9F9" strokeWidth="1.5" strokeLinecap="round" strokeLinejoin="round"/>
</svg>
