  <svg
              width="16"
              height="21"
              viewBox="0 0 16 21"
              fill="none"
              xmlns="http://www.w3.org/2000/svg"
            >
              <path
                d="M1.57039 6.38699C1.28389 4.49999 2.61439 2.80499 4.64689 2.18399C5.00758 2.07446 5.39643 2.1062 5.73458 2.27277C6.07274 2.43934 6.33489 2.72828 6.46789 3.08099L7.12039 4.82099C7.22543 5.10091 7.24442 5.40583 7.17493 5.69663C7.10544 5.98742 6.95064 6.25081 6.73039 6.45299L4.78939 8.23049C4.69359 8.3182 4.62222 8.42929 4.58225 8.55287C4.54228 8.67645 4.53509 8.8083 4.56139 8.93549L4.57939 9.01349L4.62589 9.20849C4.86788 10.1558 5.23565 11.0664 5.71939 11.916C6.24757 12.8181 6.90222 13.64 7.66339 14.3565L7.72339 14.4105C7.82029 14.4965 7.93782 14.5559 8.06453 14.583C8.19123 14.6101 8.3228 14.6039 8.44639 14.565L10.9559 13.7745C11.2411 13.6849 11.5465 13.6827 11.833 13.7679C12.1195 13.8532 12.374 14.0221 12.5639 14.253L13.7519 15.6945C14.2469 16.2945 14.1869 17.1765 13.6184 17.706C12.0629 19.1565 9.92389 19.4535 8.43589 18.258C6.61116 16.7875 5.07342 14.993 3.89989 12.9645C2.71487 10.9387 1.92546 8.70692 1.57039 6.38699ZM6.13339 9.03449L7.74139 7.55849C8.18214 7.1543 8.49204 6.62759 8.63129 6.046C8.77054 5.46441 8.73279 4.85447 8.52289 4.29449L7.87189 2.55449C7.60482 1.84465 7.07755 1.26308 6.39721 0.927925C5.71686 0.592766 4.93444 0.529148 4.20889 0.749992C1.68439 1.52249 -0.342112 3.78599 0.0868879 6.61349C0.386888 8.58749 1.07839 11.0985 2.60389 13.7205C3.87006 15.9077 5.52881 17.8425 7.49689 19.428C9.72889 21.2205 12.7079 20.6085 14.6429 18.8055C15.1966 18.29 15.5326 17.5826 15.5825 16.8277C15.6324 16.0729 15.3924 15.3274 14.9114 14.7435L13.7234 13.3005C13.3433 12.8392 12.8342 12.502 12.2612 12.332C11.6882 12.162 11.0775 12.1671 10.5074 12.3465L8.42389 13.002C7.8859 12.4474 7.4147 11.8317 7.01989 11.1675C6.63891 10.4958 6.34169 9.77998 6.13489 9.03599"
                fill="#2A2A2A"
              ></path>
            </svg>