 <svg
                  width="16"
                  height="20"
                  viewBox="0 0 16 20"
                  fill="none"
                  xmlns="http://www.w3.org/2000/svg"
                >
                  <path
                    d="M1.90437 5.88702C1.61787 4.00002 2.94837 2.30502 4.98087 1.68402C5.34156 1.57449 5.73041 1.60623 6.06857 1.7728C6.40672 1.93937 6.66888 2.22831 6.80187 2.58102L7.45437 4.32102C7.55941 4.60094 7.57841 4.90587 7.50892 5.19666C7.43942 5.48745 7.28462 5.75084 7.06437 5.95302L5.12337 7.73052C5.02758 7.81823 4.9562 7.92932 4.91623 8.0529C4.87627 8.17648 4.86908 8.30833 4.89537 8.43552L4.91337 8.51352L4.95987 8.70852C5.20187 9.65579 5.56963 10.5664 6.05337 11.416C6.58156 12.3181 7.2362 13.14 7.99737 13.8565L8.05737 13.9105C8.15427 13.9965 8.27181 14.056 8.39851 14.083C8.52522 14.1101 8.65678 14.1039 8.78037 14.065L11.2899 13.2745C11.5751 13.185 11.8805 13.1827 12.167 13.2679C12.4535 13.3532 12.708 13.5221 12.8979 13.753L14.0859 15.1945C14.5809 15.7945 14.5209 16.6765 13.9524 17.206C12.3969 18.6565 10.2579 18.9535 8.76987 17.758C6.94515 16.2875 5.4074 14.493 4.23387 12.4645C3.04886 10.4387 2.25944 8.20695 1.90437 5.88702ZM6.46737 8.53452L8.07537 7.05852C8.51613 6.65433 8.82602 6.12763 8.96527 5.54603C9.10452 4.96444 9.06677 4.35451 8.85687 3.79452L8.20587 2.05452C7.9388 1.34468 7.41154 0.763115 6.73119 0.427956C6.05084 0.0927969 5.26843 0.0291785 4.54287 0.250023C2.01837 1.02252 -0.00812769 3.28602 0.420872 6.11352C0.720872 8.08752 1.41237 10.5985 2.93787 13.2205C4.20404 15.4077 5.86279 17.3426 7.83087 18.928C10.0629 20.7205 13.0419 20.1085 14.9769 18.3055C15.5305 17.79 15.8666 17.0826 15.9165 16.3278C15.9664 15.5729 15.7264 14.8274 15.2454 14.2435L14.0574 12.8005C13.6773 12.3392 13.1682 12.002 12.5952 11.832C12.0222 11.662 11.4115 11.6671 10.8414 11.8465L8.75787 12.502C8.21989 11.9474 7.74868 11.3317 7.35387 10.6675C6.97289 9.99585 6.67568 9.28001 6.46887 8.53602"
                    fill="white"
                  ></path>
                </svg>