<svg width="14" height="11" viewBox="0 0 14 11" fill="none" xmlns="http://www.w3.org/2000/svg">
<path d="M4.00132 10.1667C3.5391 10.1667 3.14554 10.0045 2.82066 9.68004C2.49577 9.35693 2.33332 8.9636 2.33332 8.50004H1.25266C1.15799 8.50004 1.07888 8.46804 1.01532 8.40404C0.951767 8.34004 0.919767 8.26071 0.919322 8.16604C0.918878 8.07137 0.950878 7.99226 1.01532 7.92871C1.07977 7.86515 1.15888 7.83337 1.25266 7.83337H2.50399C2.62443 7.53693 2.81888 7.29604 3.08732 7.11071C3.35577 6.92582 3.65999 6.83337 3.99999 6.83337C4.33999 6.83337 4.64443 6.92582 4.91332 7.11071C5.18132 7.29604 5.37555 7.53693 5.49599 7.83337H8.57466L10.0387 1.50004H3.14132C3.04666 1.50004 2.96732 1.46804 2.90332 1.40404C2.83932 1.34004 2.80754 1.26071 2.80799 1.16604C2.80843 1.07137 2.84021 0.992263 2.90332 0.928707C2.96643 0.865152 3.04577 0.833374 3.14132 0.833374H10.1927C10.3633 0.833374 10.5024 0.901819 10.61 1.03871C10.718 1.1756 10.7527 1.32804 10.714 1.49604L10.332 3.16671H11.1793C11.35 3.16671 11.5115 3.20493 11.664 3.28137C11.8169 3.35737 11.9427 3.46271 12.0413 3.59737L13.2393 5.19604C13.3362 5.32582 13.3991 5.46115 13.428 5.60204C13.4573 5.74249 13.4595 5.89004 13.4347 6.04471L13.036 8.06937C13.0111 8.19915 12.948 8.30337 12.8467 8.38204C12.7453 8.46071 12.6302 8.50004 12.5013 8.50004H12.1793C12.1793 8.96182 12.0175 9.35515 11.694 9.68004C11.3704 10.0049 10.9771 10.1672 10.514 10.1667C10.0509 10.1663 9.65732 10.004 9.33332 9.68004C9.00888 9.35649 8.84666 8.96315 8.84666 8.50004H5.66666C5.66666 8.96182 5.50488 9.35515 5.18132 9.68004C4.85777 10.0049 4.46443 10.1672 4.00132 10.1667ZM9.59132 6.33337H12.692L12.81 5.74004L11.3847 3.83337H10.1727L9.59132 6.33337ZM8.73599 7.16537L8.82266 6.77871C8.88043 6.52093 8.95377 6.20537 9.04266 5.83204C9.09288 5.6276 9.13688 5.43871 9.17466 5.26537C9.21199 5.09204 9.24177 4.94849 9.26399 4.83471L9.35066 4.44804C9.40843 4.19026 9.48177 3.87471 9.57066 3.50137C9.65954 3.12804 9.73288 2.81248 9.79066 2.55471L9.87732 2.16804L10.0387 1.50004L8.57399 7.83337L8.73599 7.16537ZM0.525989 6.16537C0.434878 6.16537 0.358656 6.13337 0.297322 6.06937C0.235989 6.00537 0.205322 5.92626 0.205322 5.83204C0.205322 5.73782 0.2371 5.65848 0.300656 5.59404C0.364211 5.5296 0.443545 5.49782 0.538656 5.49871H2.85866C2.95332 5.49871 3.03266 5.53071 3.09666 5.59471C3.16066 5.65871 3.19243 5.73804 3.19199 5.83271C3.19154 5.92737 3.15977 6.00648 3.09666 6.07004C3.03354 6.1336 2.95421 6.16537 2.85866 6.16537H0.525989ZM1.85932 3.83471C1.76466 3.83471 1.68532 3.80271 1.62132 3.73871C1.55732 3.67471 1.52532 3.59537 1.52532 3.50071C1.52532 3.40604 1.55732 3.32693 1.62132 3.26337C1.68532 3.19982 1.76443 3.16804 1.85866 3.16804H4.85866C4.95332 3.16804 5.03266 3.20004 5.09666 3.26404C5.16021 3.32804 5.19199 3.40737 5.19199 3.50204C5.19199 3.59671 5.16021 3.67582 5.09666 3.73937C5.0331 3.80293 4.95377 3.83471 4.85866 3.83471H1.85932ZM3.99999 9.50004C4.27421 9.50004 4.50954 9.40204 4.70599 9.20604C4.90199 9.0096 4.99999 8.77426 4.99999 8.50004C4.99999 8.22582 4.90199 7.99049 4.70599 7.79404C4.50999 7.5976 4.27466 7.4996 3.99999 7.50004C3.72532 7.50049 3.48999 7.59849 3.29399 7.79404C3.09799 7.99049 2.99999 8.22582 2.99999 8.50004C2.99999 8.77426 3.09799 9.0096 3.29399 9.20604C3.49043 9.40204 3.72577 9.50004 3.99999 9.50004ZM10.5133 9.50004C10.7875 9.50004 11.0227 9.40204 11.2187 9.20604C11.4147 9.0096 11.5127 8.77426 11.5127 8.50004C11.5127 8.22582 11.4147 7.99049 11.2187 7.79404C11.0227 7.5976 10.7873 7.4996 10.5127 7.50004C10.238 7.50049 10.0029 7.59849 9.80732 7.79404C9.61088 7.99049 9.51266 8.22582 9.51266 8.50004C9.51266 8.77426 9.61066 9.0096 9.80666 9.20604C10.0031 9.40204 10.2387 9.50004 10.5133 9.50004Z" fill="#831FC1"/>
</svg>
