<svg width="24" height="24" viewBox="0 0 24 24" fill="none" xmlns="http://www.w3.org/2000/svg">
<path d="M11.146 7.023C11.526 6.34 11.716 6 12 6C12.284 6 12.474 6.34 12.854 7.023L12.952 7.199C13.06 7.393 13.114 7.489 13.198 7.553C13.283 7.617 13.388 7.641 13.598 7.688L13.788 7.732C14.526 7.899 14.895 7.982 14.983 8.264C15.071 8.546 14.819 8.841 14.316 9.429L14.186 9.581C14.043 9.748 13.971 9.831 13.939 9.935C13.907 10.039 13.918 10.15 13.939 10.373L13.959 10.576C14.035 11.361 14.073 11.754 13.844 11.928C13.614 12.102 13.268 11.943 12.577 11.625L12.399 11.543C12.202 11.453 12.104 11.408 12 11.408C11.896 11.408 11.798 11.453 11.601 11.543L11.423 11.625C10.732 11.944 10.386 12.102 10.156 11.928C9.92604 11.754 9.96504 11.361 10.041 10.576L10.061 10.373C10.082 10.15 10.093 10.039 10.061 9.935C10.029 9.831 9.95704 9.748 9.81404 9.581L9.68404 9.429C9.18104 8.841 8.92904 8.547 9.01704 8.264C9.10504 7.982 9.47404 7.899 10.212 7.732L10.402 7.688C10.612 7.641 10.717 7.618 10.802 7.553C10.886 7.489 10.94 7.393 11.048 7.199L11.146 7.023Z" stroke="#EFC003" strokeWidth="1.5"/>
<path d="M19 9C19 9.91925 18.8189 10.8295 18.4672 11.6788C18.1154 12.5281 17.5998 13.2997 16.9497 13.9497C16.2997 14.5998 15.5281 15.1154 14.6788 15.4672C13.8295 15.8189 12.9193 16 12 16C11.0807 16 10.1705 15.8189 9.32122 15.4672C8.47194 15.1154 7.70026 14.5998 7.05025 13.9497C6.40024 13.2997 5.88463 12.5281 5.53284 11.6788C5.18106 10.8295 5 9.91925 5 9C5 7.14348 5.7375 5.36301 7.05025 4.05025C8.36301 2.7375 10.1435 2 12 2C13.8565 2 15.637 2.7375 16.9497 4.05025C18.2625 5.36301 19 7.14348 19 9Z" stroke="#EFC003" strokeWidth="1.5"/>
<path d="M5.45602 12L2.99202 14.551C2.45202 15.11 2.18202 15.39 2.08802 15.627C1.87502 16.166 2.05802 16.765 2.52102 17.049C2.72502 17.173 3.09202 17.212 3.82602 17.29C4.24102 17.334 4.44802 17.355 4.62102 17.422C4.81455 17.4968 4.98948 17.6128 5.13367 17.762C5.27786 17.9112 5.38786 18.09 5.45602 18.286C5.52002 18.466 5.54102 18.68 5.58402 19.11C5.65802 19.87 5.69602 20.25 5.81602 20.46C6.09002 20.94 6.66902 21.128 7.18902 20.908C7.41902 20.812 7.68902 20.533 8.22902 19.973L12 16.068L15.771 19.973C16.311 20.533 16.581 20.812 16.811 20.908C17.331 21.128 17.91 20.94 18.184 20.46C18.304 20.25 18.341 19.87 18.416 19.11C18.459 18.68 18.48 18.466 18.544 18.286C18.688 17.884 18.99 17.571 19.379 17.422C19.552 17.355 19.759 17.334 20.174 17.29C20.908 17.212 21.275 17.173 21.479 17.049C21.942 16.765 22.125 16.166 21.912 15.627C21.818 15.39 21.548 15.11 21.008 14.551L18.544 12" stroke="#EFC003" strokeWidth="1.5"/>
</svg>
