<svg width="48" height="49" viewBox="0 0 48 49" fill="none" xmlns="http://www.w3.org/2000/svg">
<path d="M13.7143 32.7284C11.2661 34.6513 8.45604 36.0622 5.45142 36.8769C5.12047 36.9971 4.83454 37.2162 4.63247 37.5045C4.4304 37.7928 4.322 38.1363 4.322 38.4884C4.322 38.8404 4.4304 39.184 4.63247 39.4723C4.83454 39.7606 5.12047 39.9797 5.45142 40.0998C29.1771 49.8369 44.2628 34.7855 41.9657 18.0884L45.8057 10.1341H41.3486C35.7943 3.31123 21.0514 3.65408 23.4857 18.1912C23.4857 18.1912 15.6 19.5969 5.51999 9.68837C5.28682 9.45816 4.99256 9.2996 4.67206 9.23147C4.35156 9.16334 4.01825 9.18848 3.71159 9.30392C3.40494 9.41937 3.1378 9.62028 2.9418 9.88286C2.74581 10.1454 2.62917 10.4587 2.6057 10.7855C1.53987 15.1667 2.07326 19.7845 4.10983 23.8073C6.14639 27.8302 9.55231 30.9937 13.7143 32.7284Z" stroke="#831FC1" strokeWidth="2" strokeLinecap="round" strokeLinejoin="round"/>
</svg>
